<svg width="612" height="524" viewBox="0 0 612 524" fill="none" xmlns="http://www.w3.org/2000/svg">
<g clip-path="url(#clip0_92_32)">
<path d="M84.1049 513.252C82.8878 513.328 82.2152 511.816 83.136 510.934L83.2276 510.57L83.1912 510.483C81.9604 507.548 77.7892 507.568 76.5689 510.507C75.4858 513.116 74.1068 515.729 73.7673 518.487C73.6151 519.705 73.6835 520.945 73.9537 522.14C71.4158 516.596 70.0803 510.543 70.0803 504.455C70.0803 502.925 70.164 501.396 70.3352 499.87C70.476 498.622 70.6701 497.381 70.9212 496.152C72.2795 489.509 75.2207 483.182 79.4632 477.896C81.5026 476.782 83.2034 475.039 84.2308 472.95C84.5998 472.197 84.889 471.386 85.026 470.561C84.7939 470.591 84.1508 467.056 84.3259 466.839C84.0025 466.349 83.4235 466.105 83.0703 465.626C81.3134 463.244 78.8929 463.66 77.6292 466.896C74.9298 468.259 74.9037 470.518 76.56 472.691C77.6138 474.074 77.7586 475.945 78.6832 477.425C78.5881 477.546 78.4891 477.664 78.394 477.786C76.6496 480.023 75.141 482.428 73.8691 484.955C74.2286 482.147 73.6979 478.764 72.7932 476.584C71.7633 474.099 69.833 472.007 68.1331 469.859C66.0913 467.279 61.9044 468.405 61.5447 471.676L61.5345 471.771C61.7869 471.913 62.0343 472.064 62.2759 472.224C63.6541 473.136 63.1778 475.272 61.5448 475.524L61.5078 475.53C61.5991 476.439 61.7551 477.341 61.9834 478.228C59.8027 486.661 64.5107 489.733 71.2331 489.871C71.3815 489.947 71.5261 490.023 71.6745 490.095C70.9934 492.013 70.4493 493.98 70.046 495.974C69.6846 497.735 69.4334 499.516 69.2927 501.304C69.1176 503.561 69.1328 505.828 69.3231 508.081L69.3117 508.001C68.8285 505.52 67.4815 503.203 65.5258 501.597C62.6123 499.204 58.4962 498.323 55.3531 496.399C53.8401 495.473 51.9013 496.67 52.1653 498.424L52.1782 498.508C52.6462 498.698 53.1028 498.919 53.5441 499.166C53.7966 499.308 54.044 499.46 54.2856 499.619C55.6638 500.531 55.1875 502.667 53.5545 502.919L53.5175 502.925L53.4414 502.937C54.2442 504.843 55.3628 506.612 56.7631 508.138C58.1266 515.5 63.9831 516.198 70.2477 514.055H70.2515C70.9364 517.038 71.9371 519.952 73.2231 522.73H83.8388C83.8769 522.612 83.9111 522.49 83.9454 522.372C82.9637 522.433 81.9744 522.376 81.008 522.197C81.7956 521.231 82.5832 520.257 83.3708 519.29C83.3898 519.271 83.4051 519.252 83.4203 519.233C83.8198 518.738 84.2231 518.248 84.6226 517.753C84.6476 516.235 84.4655 514.72 84.1049 513.252Z" fill="#F2F2F2"/>
<path d="M535.947 513.252C537.164 513.328 537.837 511.816 536.916 510.934L536.824 510.57L536.861 510.483C538.091 507.548 542.263 507.568 543.483 510.507C544.566 513.116 545.945 515.729 546.285 518.487C546.437 519.705 546.368 520.945 546.098 522.14C548.636 516.596 549.972 510.543 549.972 504.455C549.972 502.925 549.888 501.396 549.717 499.87C549.576 498.622 549.382 497.381 549.131 496.152C547.772 489.509 544.831 483.182 540.589 477.896C538.549 476.782 536.848 475.039 535.821 472.95C535.452 472.197 535.163 471.386 535.026 470.561C535.258 470.591 535.901 467.056 535.726 466.839C536.049 466.349 536.628 466.105 536.982 465.626C538.738 463.244 541.159 463.66 542.423 466.896C545.122 468.259 545.148 470.518 543.492 472.691C542.438 474.074 542.293 475.945 541.369 477.425C541.464 477.546 541.563 477.664 541.658 477.786C543.402 480.023 544.911 482.428 546.183 484.955C545.823 482.147 546.354 478.764 547.259 476.584C548.289 474.099 550.219 472.007 551.919 469.859C553.961 467.279 558.147 468.405 558.507 471.676L558.517 471.771C558.265 471.913 558.018 472.064 557.776 472.224C556.398 473.136 556.874 475.272 558.507 475.524L558.544 475.53C558.453 476.439 558.297 477.341 558.068 478.228C560.249 486.661 555.541 489.733 548.819 489.871C548.67 489.947 548.526 490.023 548.377 490.095C549.058 492.013 549.603 493.98 550.006 495.974C550.367 497.735 550.619 499.516 550.759 501.304C550.934 503.561 550.919 505.828 550.729 508.081L550.74 508.001C551.223 505.52 552.57 503.203 554.526 501.597C557.44 499.204 561.556 498.323 564.699 496.399C566.212 495.473 568.151 496.67 567.887 498.424L567.874 498.508C567.406 498.698 566.949 498.919 566.508 499.166C566.255 499.308 566.008 499.46 565.766 499.619C564.388 500.531 564.864 502.667 566.497 502.919L566.534 502.925L566.61 502.937C565.808 504.843 564.689 506.612 563.289 508.138C561.925 515.5 556.069 516.198 549.804 514.055H549.8C549.115 517.038 548.115 519.952 546.829 522.73H536.213C536.175 522.612 536.141 522.49 536.106 522.372C537.088 522.433 538.077 522.376 539.044 522.197C538.256 521.231 537.469 520.257 536.681 519.29C536.662 519.271 536.647 519.252 536.631 519.233C536.232 518.738 535.829 518.248 535.429 517.753C535.404 516.235 535.586 514.72 535.947 513.252Z" fill="#F2F2F2"/>
<path d="M1.01849 523.953H610.474C611.036 523.953 611.492 523.497 611.492 522.934C611.492 522.372 611.036 521.916 610.474 521.916H1.01849C0.45599 521.916 0 522.372 0 522.934C0 523.497 0.45599 523.953 1.01849 523.953Z" fill="#E6E6E6"/>
<path d="M32.3056 64.6694C33.1175 62.3897 35.3817 61.044 37.687 61.3025C38.6477 61.4102 39.6075 61.4958 40.5726 61.439C64.6424 60.0235 94.4549 73.8052 126.191 92.6787C97.1385 69.1703 70.5482 48.3745 39.2743 69.7455C37.0405 71.272 33.8756 70.7328 32.5761 68.3597C32.0541 67.4063 31.8656 66.2637 32.1769 65.0853C32.2136 64.9462 32.2565 64.8075 32.3056 64.6694Z" fill="#96C899"/>
<path d="M192.839 8.28241C194.823 9.5473 195.639 11.9529 194.978 14.0973L194.903 14.3393C194.241 16.4921 192.797 18.3007 190.885 19.4911C163.516 36.5296 195.204 58.3347 144.551 93.531C169.079 67.2842 189.254 6.50192 192.319 7.99156C192.496 8.07736 192.669 8.17424 192.839 8.28241Z" fill="#3751FE"/>
<path d="M234.79 141.519C233.769 143.639 231.478 144.735 229.27 144.333L229.021 144.288C226.805 143.885 224.837 142.667 223.428 140.909C203.262 115.756 185.372 149.808 144.412 103.691C173.385 124.931 236.132 137.748 235.017 140.968C234.953 141.154 234.877 141.338 234.79 141.519Z" fill="#C31B1B"/>
<path d="M197.93 139.947C196.879 140.53 195.185 140.448 193.818 139.816L193.663 139.745C192.291 139.111 191.228 138.221 190.627 137.248C182.032 123.321 164.184 132.359 145.824 105.959C160.875 120.313 199.489 138.808 198.178 139.788C198.102 139.844 198.019 139.897 197.93 139.947Z" fill="#EE1818"/>
<path d="M206.212 84.3984C205.953 85.5712 204.769 86.7853 203.389 87.3902L203.233 87.4584C201.848 88.066 200.478 88.2717 199.351 88.0764C183.226 85.2809 178.162 104.635 146.226 100.882C166.95 99.1279 206.393 82.4753 206.257 84.1069C206.25 84.2009 206.235 84.2981 206.212 84.3984Z" fill="#E6E6E6"/>
<path d="M44.832 157.144C43.6744 155.096 44.0832 152.588 45.6741 151.006L45.8536 150.827C47.4497 149.238 49.5734 148.319 51.8207 148.166C83.9854 145.975 66.2483 111.843 127.497 104.555C93.5156 116.209 47.1608 160.399 45.1543 157.645C45.0387 157.486 44.931 157.319 44.832 157.144Z" fill="#FCB809"/>
<path d="M174.185 156.776C172.995 157.57 171.468 157.412 170.452 156.487L170.338 156.383C169.318 155.455 168.681 154.176 168.502 152.791C165.933 132.97 146.049 145.235 139.28 107.61C147.623 128.197 176.057 155.212 174.474 156.558C174.383 156.635 174.287 156.708 174.185 156.776Z" fill="#E6E6E6"/>
<path d="M138.161 189.377C136.338 189.392 134.804 188.167 134.344 186.486L134.292 186.296C133.83 184.609 134.021 182.815 134.775 181.227C145.572 158.49 115.797 157.684 134.255 113.212C129.144 140.759 141.243 189.02 138.621 189.347C138.47 189.366 138.316 189.376 138.161 189.377Z" fill="#00BFA6"/>
<path d="M72.1955 158.306C71.0213 156.912 70.9862 154.949 71.9877 153.522L72.1006 153.361C73.1051 151.929 74.6081 150.932 76.3126 150.499C100.709 144.309 82.336 120.865 128.358 106.71C103.884 120.348 74.4371 160.452 72.5127 158.641C72.4019 158.537 72.2959 158.425 72.1955 158.306Z" fill="#00BFA6"/>
<path d="M86.9977 137.952C86.2551 137.258 86.2351 136.214 86.8715 135.413L86.9432 135.323C87.5815 134.519 88.5353 133.925 89.6161 133.625C105.086 129.321 93.4677 117.596 122.653 108.158C107.126 116.43 88.416 139.002 87.1984 138.117C87.1282 138.066 87.0612 138.011 86.9977 137.952Z" fill="#00BFA6"/>
<path d="M108.632 152.785C107.693 152.396 107.307 151.426 107.622 150.453L107.657 150.343C107.972 149.366 108.656 148.475 109.563 147.814C122.533 138.348 107.536 131.454 131.542 112.361C119.913 125.563 110.329 153.27 108.878 152.869C108.794 152.846 108.712 152.818 108.632 152.785Z" fill="#E6E6E6"/>
<path d="M45.3402 87.0239L47.6994 94.2847H55.3339L49.1574 98.7722L51.5166 106.033L45.3402 101.546L39.1637 106.033L41.5229 98.7722L35.3464 94.2847H42.981L45.3402 87.0239Z" fill="#00BFA6"/>
<path d="M150.548 0L152.907 7.26087H160.542L154.365 11.7483L156.725 19.0092L150.548 14.5217L144.372 19.0092L146.731 11.7483L140.554 7.26087H148.189L150.548 0Z" fill="#E6E6E6"/>
<path d="M206.399 77.9318L208.758 85.1927H216.393L210.217 89.6802L212.576 96.941L206.399 92.4536L200.223 96.941L202.582 89.6802L196.406 85.1927H204.04L206.399 77.9318Z" fill="#00BFA6"/>
<path d="M93.3981 157.162L95.7573 164.423H103.392L97.2154 168.911L99.5746 176.172L93.3981 171.684L87.2217 176.172L89.5809 168.911L83.4044 164.423H91.0389L93.3981 157.162Z" fill="#00BFA6"/>
<path d="M136.261 77.9318L138.62 85.1927H146.254L140.078 89.6802L142.437 96.941L136.261 92.4536L130.084 96.941L132.443 89.6802L126.267 85.1927H133.901L136.261 77.9318Z" fill="#00BFA6"/>
<path d="M195.204 0L197.563 7.26087H205.197L199.021 11.7483L201.38 19.0092L195.204 14.5217L189.027 19.0092L191.386 11.7483L185.21 7.26087H192.844L195.204 0Z" fill="#E6E6E6"/>
<path d="M41.3388 143.502L44.3306 150.526L51.9352 149.851L46.1796 154.867L49.1714 161.891L42.6225 157.967L36.8669 162.983L38.575 155.542L32.026 151.618L39.6306 150.943L41.3388 143.502Z" fill="#E6E6E6"/>
<path d="M106.65 9.35388C108.027 8.67591 109.575 9.13325 110.451 10.3616L110.55 10.5002C111.43 11.7327 111.848 13.292 111.775 14.8867C110.725 37.7112 133.553 27.5085 133.516 71.1814C128.745 46.438 104.424 10.7761 106.31 9.5473C106.419 9.47652 106.532 9.41187 106.65 9.35388Z" fill="#00BFA6"/>
<path d="M86.7407 43.1854C87.3512 42.4232 88.3528 42.3182 89.1709 42.8561L89.2632 42.9168C90.0846 43.4563 90.7268 44.3127 91.0978 45.3139C96.4067 59.643 106.794 47.6475 118.078 74.5722C108.95 60.5159 85.8388 44.6183 86.5969 43.3895C86.6406 43.3187 86.6885 43.2505 86.7407 43.1854Z" fill="#E6E6E6"/>
<path d="M69.1683 84.8355C69.252 83.8626 70.0261 83.2183 71.0052 83.2106L71.1157 83.2098C72.0983 83.2016 73.1083 83.5563 73.9733 84.1822C86.3527 93.1409 88.3177 77.395 112.666 93.5013C97.264 86.8926 69.2153 86.5279 69.1623 85.0851C69.1592 85.002 69.1611 84.9187 69.1683 84.8355Z" fill="#E6E6E6"/>
<path d="M414.878 124.763C415.406 123.28 416.879 122.404 418.379 122.573C419.004 122.643 419.629 122.698 420.257 122.661C435.917 121.74 455.314 130.707 475.963 142.987C457.06 127.692 439.76 114.161 419.412 128.066C417.958 129.059 415.899 128.708 415.054 127.164C414.714 126.544 414.591 125.801 414.794 125.034C414.818 124.943 414.846 124.853 414.878 124.763Z" fill="#229129" fill-opacity="0.447059"/>
<path d="M519.327 88.0756C520.618 88.8986 521.149 90.4638 520.719 91.859L520.67 92.0165C520.239 93.4171 519.3 94.5939 518.055 95.3685C500.248 106.454 520.865 120.642 487.909 143.542C503.868 126.464 516.994 86.9172 518.989 87.8864C519.104 87.9422 519.216 88.0052 519.327 88.0756Z" fill="#C31B1B"/>
<path d="M546.622 174.764C545.958 176.144 544.467 176.857 543.03 176.595L542.868 176.566C541.426 176.304 540.146 175.511 539.23 174.368C526.108 158.002 514.469 180.158 487.818 150.152C506.669 163.972 547.495 172.311 546.769 174.406C546.728 174.527 546.679 174.646 546.622 174.764Z" fill="#EE1818"/>
<path d="M522.639 173.742C521.956 174.121 520.853 174.068 519.964 173.657L519.863 173.61C518.97 173.198 518.279 172.619 517.888 171.986C512.295 162.924 500.683 168.804 488.737 151.628C498.53 160.967 523.654 173 522.8 173.638C522.751 173.675 522.697 173.709 522.639 173.742Z" fill="#E6E6E6"/>
<path d="M528.028 137.6C527.859 138.363 527.089 139.153 526.191 139.546L526.09 139.591C525.189 139.986 524.297 140.12 523.564 139.993C513.072 138.174 509.777 150.766 488.998 148.325C502.482 147.183 528.146 136.348 528.057 137.41C528.052 137.471 528.043 137.534 528.028 137.6Z" fill="#FCB809"/>
<path d="M423.028 184.931C422.275 183.598 422.541 181.967 423.576 180.937L423.693 180.821C424.731 179.786 426.113 179.189 427.575 179.089C448.503 177.663 436.962 155.456 476.813 150.714C454.703 158.297 424.543 187.049 423.238 185.257C423.162 185.153 423.092 185.045 423.028 184.931Z" fill="#357095"/>
<path d="M507.19 184.691C506.416 185.208 505.422 185.105 504.761 184.503L504.687 184.435C504.023 183.832 503.609 182.999 503.492 182.098C501.821 169.202 488.883 177.182 484.479 152.702C489.907 166.097 508.407 183.674 507.378 184.549C507.319 184.6 507.256 184.647 507.19 184.691Z" fill="#229129" fill-opacity="0.443137"/>
<path d="M483.751 205.903C482.565 205.913 481.567 205.115 481.268 204.021L481.234 203.898C480.933 202.8 481.058 201.633 481.548 200.6C488.573 185.807 469.2 185.282 481.21 156.347C477.885 174.27 485.757 205.671 484.051 205.883C483.952 205.895 483.852 205.902 483.751 205.903Z" fill="#00BFA6"/>
<path d="M440.832 185.687C440.068 184.78 440.045 183.502 440.696 182.574L440.77 182.469C441.423 181.537 442.401 180.889 443.51 180.607C459.384 176.58 447.429 161.326 477.373 152.116C461.449 160.99 442.29 187.083 441.038 185.905C440.966 185.837 440.897 185.764 440.832 185.687Z" fill="#00BFA6"/>
<path d="M450.462 172.444C449.979 171.992 449.966 171.313 450.38 170.792L450.427 170.733C450.842 170.21 451.463 169.824 452.166 169.628C462.231 166.828 454.672 159.199 473.661 153.058C463.558 158.441 451.385 173.127 450.593 172.551C450.547 172.518 450.504 172.482 450.462 172.444Z" fill="#00BFA6"/>
<path d="M464.538 182.095C463.928 181.842 463.677 181.21 463.881 180.577L463.904 180.506C464.109 179.87 464.554 179.29 465.144 178.86C473.583 172.701 463.825 168.215 479.445 155.793C471.878 164.383 465.643 182.41 464.699 182.149C464.644 182.134 464.591 182.116 464.538 182.095Z" fill="#E6E6E6"/>
<path d="M423.358 139.308L424.893 144.032H429.861L425.842 146.952L427.377 151.676L423.358 148.756L419.34 151.676L420.875 146.952L416.856 144.032H421.824L423.358 139.308Z" fill="#00BFA6"/>
<path d="M491.811 82.6868L493.346 87.411H498.313L494.295 90.3307L495.83 95.0549L491.811 92.1352L487.792 95.0549L489.327 90.3307L485.309 87.411H490.276L491.811 82.6868Z" fill="#96C899"/>
<path d="M528.15 133.392L529.685 138.116H534.652L530.633 141.036L532.168 145.76L528.15 142.841L524.131 145.76L525.666 141.036L521.647 138.116H526.615L528.15 133.392Z" fill="#00BFA6"/>
<path d="M454.627 184.943L456.162 189.667H461.129L457.11 192.587L458.645 197.311L454.627 194.391L450.608 197.311L452.143 192.587L448.125 189.667H453.092L454.627 184.943Z" fill="#00BFA6"/>
<path d="M482.515 133.392L484.05 138.116H489.017L484.999 141.036L486.534 145.76L482.515 142.841L478.496 145.76L480.031 141.036L476.013 138.116H480.98L482.515 133.392Z" fill="#00BFA6"/>
<path d="M520.865 82.6868L522.4 87.411H527.368L523.349 90.3307L524.884 95.0549L520.865 92.1352L516.847 95.0549L518.382 90.3307L514.363 87.411H519.33L520.865 82.6868Z" fill="#C31B1B"/>
<path d="M420.755 176.055L422.702 180.625L427.649 180.186L423.905 183.449L425.851 188.019L421.59 185.466L417.845 188.73L418.957 183.888L414.696 181.335L419.644 180.896L420.755 176.055Z" fill="#FCB809"/>
<path d="M463.249 88.7728C464.145 88.3317 465.152 88.6292 465.722 89.4285L465.786 89.5186C466.359 90.3205 466.631 91.335 466.583 92.3726C465.9 107.223 480.753 100.585 480.729 129C477.625 112.901 461.801 89.6981 463.028 88.8986C463.099 88.8526 463.172 88.8105 463.249 88.7728Z" fill="#00BFA6"/>
<path d="M450.295 110.785C450.692 110.289 451.344 110.221 451.877 110.571L451.937 110.61C452.471 110.961 452.889 111.518 453.13 112.17C456.584 121.493 463.343 113.688 470.684 131.206C464.746 122.061 449.709 111.717 450.202 110.918C450.23 110.872 450.261 110.827 450.295 110.785Z" fill="#245122" fill-opacity="0.329412"/>
<path d="M438.862 137.884C438.916 137.251 439.42 136.832 440.057 136.827L440.129 136.826C440.768 136.821 441.426 137.052 441.988 137.459C450.043 143.288 451.321 133.043 467.163 143.522C457.142 139.222 438.893 138.985 438.858 138.046C438.856 137.992 438.857 137.938 438.862 137.884Z" fill="#E6E6E6"/>
</g>
<defs>
<clipPath id="clip0_92_32">
<rect width="611.492" height="523.953" fill="white"/>
</clipPath>
</defs>
</svg>
